<svg width="24" height="24" viewBox="0 0 24 24" fill="none" xmlns="http://www.w3.org/2000/svg">
<path d="M11.0854 16.0358L9.6712 14.6216L12.1461 12.1467C12.7319 11.5609 12.7319 10.6111 12.1461 10.0254C11.5603 9.43957 10.6105 9.43957 10.0247 10.0254L6.48921 13.5609C5.12238 14.9277 5.12238 17.1438 6.48921 18.5106C7.85605 19.8775 10.0721 19.8775 11.439 18.5106L18.51 11.4396C19.8769 10.0727 19.8769 7.85666 18.51 6.48982L18.1565 6.13627C16.9849 4.9647 15.0854 4.9647 13.9138 6.13627L12.4996 4.72206C14.4522 2.76944 17.6181 2.76944 19.5707 4.72206L19.9242 5.07561C22.0721 7.22349 22.0721 10.7059 19.9242 12.8538L12.8532 19.9249C10.7053 22.0727 7.22288 22.0727 5.075 19.9249C2.92712 17.777 2.92712 14.2946 5.075 12.1467L8.61054 8.61114C9.97737 7.24431 12.1934 7.24431 13.5603 8.61114C14.9271 9.97798 14.9271 12.1941 13.5603 13.5609L11.0854 16.0358Z" fill="#B0B7C3"/>
</svg>
