<svg width="20" height="20" viewBox="0 0 20 20" fill="none" xmlns="http://www.w3.org/2000/svg">
<path opacity="0.3" fill-rule="evenodd" clip-rule="evenodd" d="M11.5153 3.33301H5.15168C3.97309 3.33301 3.3335 3.9726 3.3335 5.15119V11.5148C3.3335 12.6419 3.91837 13.276 5.00016 13.3293V7.99968C5.00016 6.34282 6.34331 4.99967 8.00016 4.99967H13.3298C13.2765 3.91789 12.6424 3.33301 11.5153 3.33301Z" fill="#B0B7C3"/>
<path fill-rule="evenodd" clip-rule="evenodd" d="M8.48469 6.66699H14.8483C16.0269 6.66699 16.6665 7.30659 16.6665 8.48517V14.8488C16.6665 16.0274 16.0269 16.667 14.8483 16.667H8.48469C7.3061 16.667 6.6665 16.0274 6.6665 14.8488V8.48517C6.6665 7.30659 7.3061 6.66699 8.48469 6.66699Z" fill="#B0B7C3"/>
</svg>
